<svg width="62" height="66" viewBox="0 0 62 66" fill="none" xmlns="http://www.w3.org/2000/svg">
<path d="M0.026559 24.8482V27.2819V60.5786C0.026559 62.7025 1.5015 63.2335 2.23897 63.2335H56.443C58.3014 63.2335 58.6923 61.4636 58.6554 60.5786V24.8482C58.6554 22.9013 57.6229 21.4558 57.1067 20.9765C49.2527 14.7817 33.1463 2.0604 31.5534 0.732951C29.9604 -0.594494 28.161 0.179849 27.4604 0.732951C19.5326 6.96457 3.2788 19.7375 1.68587 20.9765C0.0929313 22.2154 -0.0840614 24.0739 0.026559 24.8482Z" fill="#6425FE"/>
<path d="M50.9821 62.8383C50.9906 62.839 50.9991 62.8397 51.0076 62.8404C56.8723 63.3145 57.9303 56.9352 58.0758 53.8029C58.0723 53.5105 58.0788 53.2281 58.0959 52.9581C58.0959 53.199 58.0906 53.4841 58.0758 53.8029C58.1241 57.9368 60.1386 64.0917 61.6528 66C58.4198 64.9814 53.8203 63.0769 51.0076 62.8404C50.9991 62.8397 50.9906 62.839 50.9821 62.8383Z" fill="#6425FE"/>
<path d="M12.1948 32.2598C5.91157 33.8527 6.55317 48.1154 7.65938 55.0476C9.34081 55.7556 15.2184 56.0801 17.9471 56.1538C22.5194 56.4857 31.5976 55.468 31.3322 48.7422C31.0667 42.0165 24.7318 41.2201 21.5976 41.6625C21.1551 31.9279 15.1447 31.338 12.1948 32.2598Z" fill="white"/>
</svg>
